<svg width="1280" height="434" viewBox="0 0 1280 434" fill="none" xmlns="http://www.w3.org/2000/svg">
<path d="M69.6378 224.566C69.6378 224.566 69.6378 224.547 69.6378 224.508C69.6378 224.469 69.6378 224.45 69.6378 224.45C69.6378 224.45 69.8504 225.278 70.2756 226.933C70.6944 228.596 71.7284 232.851 73.3776 239.699C75.0204 246.553 76.5536 253.911 77.9774 261.77C79.3947 269.636 80.5929 277.95 81.5722 286.711C82.5514 295.473 83.2504 303.954 83.6691 312.155C84.0879 320.363 84.6258 328.522 85.2829 336.633C85.94 344.75 86.1494 350.351 85.911 353.437C85.6727 356.53 84.5485 359.255 82.5385 361.613C80.5285 363.964 78.016 365.504 75.001 366.232C71.986 366.96 69.0484 366.731 66.188 365.546C63.3276 364.36 61.672 362.759 61.221 360.743C60.77 358.726 59.9068 352.89 58.6312 343.233C57.3556 333.582 56.837 321.751 57.0754 307.739C57.3202 293.721 54.4405 283.622 48.4363 277.444C42.4256 271.266 37.9321 268.744 34.9558 269.878C31.9795 271.012 28.9548 271.163 25.8818 270.332C22.8089 269.494 20.2738 267.836 18.2767 265.355C16.2732 262.875 15.1941 260.044 15.0395 256.861C14.8784 253.679 15.2102 250.925 16.0348 248.599C16.853 246.267 19.2849 240.527 23.3307 231.379C27.3764 222.224 32.8749 213.411 39.8262 204.939C46.7838 196.461 54.6241 188.734 63.3469 181.757C72.0634 174.774 80.5929 169.391 88.9357 165.609C97.2849 161.821 105.705 159.844 114.196 159.676C122.687 159.515 131.071 162.189 139.35 167.697C147.622 173.211 152.701 180.601 154.589 189.865C156.47 199.135 156.332 209.22 154.174 220.121C152.022 231.021 147.641 241.139 141.031 250.474C134.428 259.808 127.467 267.24 120.149 272.767C112.83 278.288 105.586 282.804 98.4155 286.315C91.2453 289.826 86.0077 291.682 82.7028 291.881C79.3979 292.081 76.3507 291.289 73.5612 289.504C70.7717 287.72 68.7746 285.288 67.5699 282.208C66.3587 279.129 66.1687 275.988 66.9997 272.786C67.8372 269.585 69.1353 267.768 70.8941 267.336C72.6593 266.905 77.1656 265.945 84.4132 264.457C91.6608 262.968 99.7394 261.261 108.649 259.335C117.552 257.409 127.535 253.891 138.596 248.782C149.657 243.674 159.575 238.362 168.35 232.847C177.131 227.339 186.069 220.623 195.166 212.699C204.262 204.769 209.983 199.802 212.328 197.798C214.673 195.788 214.85 199.183 212.859 207.984C210.862 216.79 210.824 224.524 212.744 231.185C214.657 237.847 219.814 242.669 228.215 245.652C236.622 248.641 244.13 248.299 250.74 244.627C257.356 240.949 262.897 235.708 267.361 228.905C271.826 222.102 275.295 214.906 277.769 207.317C280.249 199.721 283.364 192.702 287.113 186.26C290.856 179.818 296.178 176.001 303.077 174.809C309.983 173.617 315.691 175.904 320.201 181.67C324.71 187.442 327.822 194.873 329.536 203.964C331.256 213.054 333.214 220.52 335.411 226.363C337.608 232.2 341.412 231.82 346.824 225.223C352.242 218.62 356.767 210.837 360.401 201.876C364.034 192.915 367.542 182.678 370.924 171.166C374.313 159.66 377.144 148.041 379.418 136.31C381.686 124.578 383.113 113.955 383.699 104.44C384.285 94.9246 384.479 84.7716 384.279 73.9808C384.079 63.1964 384.35 56.6736 385.091 54.4123C385.825 52.1446 387.156 50.3118 389.082 48.9138C391.014 47.5159 393.169 46.8169 395.547 46.8169C397.93 46.8233 400.085 47.5255 402.011 48.9235C403.938 50.3279 405.01 52.5183 405.229 55.4946C405.448 58.471 405.915 65.6573 406.631 77.0537C407.352 88.4437 407.771 100.114 407.887 112.064C408.009 124.015 407.919 140.072 407.616 160.236C407.313 180.394 406.84 202.066 406.196 225.252C405.551 248.431 404.492 267.732 403.016 283.155C401.535 298.578 400.053 313.209 398.571 327.047C397.09 340.891 396.097 352.03 395.595 360.463C395.086 368.896 395.627 375.216 397.218 379.422C398.81 383.623 402.54 382.55 408.409 376.204C414.278 369.859 418.62 363.101 421.435 355.931C424.244 348.767 426.267 341.352 427.504 333.685C428.74 326.025 429.314 318.224 429.224 310.28C429.127 302.344 427.568 294.397 424.547 286.441C421.532 278.485 416.661 270.267 409.935 261.789C403.21 253.305 397.482 247.41 392.754 244.105C388.025 240.8 384.846 238.236 383.216 236.413C381.586 234.59 380.649 232.464 380.404 230.035C380.159 227.607 380.652 225.336 381.882 223.223C383.113 221.11 384.846 219.564 387.081 218.584C389.317 217.599 391.221 217.64 392.793 218.71C394.371 219.786 398.768 221.686 405.983 224.411C413.205 227.136 421.638 226.962 431.282 223.889C440.926 220.823 449.555 216.22 457.17 210.08C464.785 203.941 470.113 199.657 473.154 197.228C476.194 194.806 478.568 196.226 480.275 201.49C481.976 206.753 487.916 208.012 498.095 205.268C508.267 202.53 518.23 197.325 527.984 189.652C537.737 181.979 546.969 175.025 555.679 168.789C564.396 162.553 572.236 158.571 579.2 156.845C586.164 155.125 592.613 155.691 598.546 158.545C604.48 161.406 608.116 164.253 609.456 167.088C610.803 169.922 611.186 172.879 610.606 175.959C610.026 179.045 608.596 181.664 606.316 183.815C604.035 185.973 601.339 187.252 598.227 187.652C595.116 188.051 592.758 188.602 591.154 189.304C589.55 190 586.171 192.793 581.017 197.682C575.863 202.572 573.041 210.38 572.552 221.106C572.062 231.833 573.466 241.28 576.765 249.449C580.07 257.612 586.296 261.68 595.444 261.654C604.599 261.622 616.243 255.341 630.378 242.81C644.518 230.28 655.976 218.246 664.75 206.708C673.518 195.163 682.827 181.296 692.678 165.107C702.521 148.911 709.866 134.748 714.71 122.617C719.555 110.492 723.633 97.6304 726.944 84.0307C730.255 70.4375 732.378 57.598 733.312 45.5123C734.253 33.4395 735.042 26.5172 735.68 24.7456C736.318 22.974 737.416 21.5599 738.975 20.5034C740.534 19.4404 742.254 18.9411 744.135 19.0055C746.017 19.0635 747.701 19.6691 749.189 20.8222C750.678 21.9819 751.206 23.9919 750.774 26.8522C750.342 29.7062 749.167 36.4448 747.247 47.0681C745.321 57.6914 743.169 66.9232 740.792 74.7635C738.408 82.6102 740.39 90.5954 738.109 98.7191C735.835 106.836 733.41 116.242 730.833 126.936C728.256 137.637 726.452 147.081 725.421 155.27C724.384 163.458 716.726 207.1 724.83 247.643C727 258.5 728.5 261.5 731.188 267.975C733.342 273.161 729 275.396 724.41 275.396C718 275.396 711.656 272.791 707.521 269.492C703.386 266.193 694.512 259.353 690.479 239.941C685.548 216.214 689.574 187.464 690.528 178.716C691.475 169.967 697.37 142.087 699.586 130.819C701.803 119.558 707.745 101.17 710.019 92.9114C712.294 84.6588 714.674 76.5706 717.161 68.6465C719.647 60.7225 722.69 51.9188 725.712 42.7321C728.733 33.5389 732.76 27.9414 734.301 25.4763C735.545 23.4863 737.416 21.5599 738.975 20.5034C740.534 19.4404 742.254 18.9411 744.135 19.0055C746.017 19.0635 747.701 19.6691 749.189 20.8222C750.678 21.9819 751.686 23.4668 752.214 25.2771C752.736 27.0745 751.892 34.4445 749.682 47.387C747.472 60.3296 744.725 74.0065 741.439 88.4179C738.154 102.829 734.179 116.577 729.515 129.661C724.85 142.746 717.78 157.949 708.303 175.273C698.827 192.596 689.875 207.591 681.449 220.256C673.022 232.922 663.903 245.288 654.092 257.354C644.274 269.42 634.887 278.932 625.932 285.89C616.971 292.848 608.806 296.777 601.436 297.679C594.059 298.581 586.357 297.335 578.33 293.94C570.303 290.545 562.991 284.296 556.394 275.193C549.797 266.083 545.391 255.109 543.175 242.269C540.952 229.423 540.643 217.389 542.247 206.167C543.851 194.951 546.982 185.452 551.64 177.669C556.298 169.893 563.265 164.585 572.542 161.744C581.819 158.909 589.914 159.177 596.826 162.546C603.745 165.915 607.916 168.222 609.34 169.465C610.764 170.715 611.186 172.879 610.606 175.959C610.026 179.045 608.596 181.664 606.316 183.815C604.035 185.973 601.339 187.252 598.227 187.652C595.116 188.051 592.184 187.5 589.434 185.999C586.683 184.492 583.452 184.859 579.741 187.101C576.03 189.349 569.714 194.094 560.791 201.335C551.869 208.576 543.99 214.993 537.154 220.585C530.319 226.183 521.822 232.023 511.662 238.104C501.503 244.192 491.827 247.884 482.633 249.179C473.447 250.48 465.874 248.795 459.915 244.125C453.962 239.454 450.103 233.498 448.338 226.257C446.579 219.009 445.877 210.889 446.231 201.896C446.592 192.896 449.095 183.87 453.74 174.819C458.385 165.767 465.126 160.588 473.965 159.28C482.804 157.978 489.913 160.001 495.292 165.348C500.672 170.702 503.291 177.102 503.149 184.55C503.014 191.997 500.189 199.734 494.674 207.761C489.159 215.795 481.493 223.609 471.675 231.205C461.851 238.794 452.844 244.466 444.656 248.222C436.468 251.978 427.706 253.653 418.372 253.247C409.043 252.841 401.116 250.226 394.59 245.4C388.064 240.575 384.131 237.415 382.791 235.92C381.444 234.426 380.649 232.464 380.404 230.035C380.159 227.607 380.652 225.336 381.882 223.223C383.113 221.11 384.846 219.564 387.081 218.584C389.317 217.599 391.626 217.363 394.01 217.879C396.4 218.394 400.791 221.296 407.181 226.586C413.579 231.881 419.212 237.405 424.083 243.158C428.959 248.911 433.318 255.18 437.157 261.963C440.997 268.741 444.038 276.439 446.28 285.059C448.521 293.679 449.655 302.605 449.681 311.836C449.707 321.068 448.889 330.194 447.227 339.213C445.558 348.238 443.049 356.836 439.699 365.004C436.349 373.18 430.715 382.544 422.797 393.096C414.886 403.649 407.024 410.368 399.209 413.254C391.395 416.14 386.221 414.091 383.69 407.108C381.164 400.118 379.995 392.51 380.182 384.283C380.369 376.05 380.919 367.701 381.834 359.235C382.755 350.77 383.812 339.654 385.004 325.887C386.202 312.12 387.217 297.663 388.048 282.517C388.879 267.372 389.188 248.29 388.975 225.271C388.769 202.26 388.254 180.765 387.429 160.787C386.605 140.816 385.835 124.759 385.12 112.615C384.398 100.471 384.289 88.6563 384.791 77.1697C385.287 65.6895 385.645 58.4613 385.864 55.485C386.083 52.5022 387.156 50.3118 389.082 48.9138C391.014 47.5159 393.169 46.8169 395.547 46.8169C397.93 46.8233 400.085 47.5255 402.011 48.9235C403.938 50.3279 405.268 52.1607 406.002 54.422C406.737 56.6897 406.888 63.4283 406.457 74.6379C406.025 85.8474 405.49 96.5191 404.852 106.653C404.208 116.78 403.148 128.151 401.673 140.765C400.204 153.372 398.217 166.076 395.711 178.877C393.211 191.685 390.351 203.126 387.13 213.202C383.915 223.277 379.054 234.062 372.548 245.555C366.047 257.048 358.819 265.513 350.863 270.95C342.907 276.381 335.369 277.979 328.25 275.743C321.138 273.508 315.591 268.602 311.61 261.026C307.622 253.443 305.847 244.357 306.285 233.766C306.724 223.174 305.748 220.346 303.357 225.281C300.974 230.216 296.091 237.67 288.708 247.642C281.325 257.608 271.758 265.329 260.007 270.805C248.257 276.281 235.768 278.266 222.542 276.758C209.316 275.251 199.298 271.008 192.489 264.031C185.679 257.061 181.756 249.549 180.719 241.496C179.682 233.45 179.933 224.566 181.473 214.845C183.019 205.117 185.531 195.949 189.01 187.342C192.489 178.736 198.297 172.609 206.433 168.963C214.576 165.31 222.024 165.532 228.775 169.629C235.533 173.72 239.482 179.325 240.623 186.444C241.763 193.562 239.982 200.839 235.279 208.273C230.569 215.701 225.1 222.498 218.87 228.663C212.64 234.828 206.585 240.208 200.703 244.801C194.821 249.394 188.082 254.178 180.487 259.151C172.898 264.118 164.997 268.979 156.783 273.733C148.569 278.481 140.439 282.431 132.392 285.581C124.346 288.731 114.75 290.622 103.605 291.253C92.4661 291.891 85.3699 292.203 82.3163 292.191C79.2691 292.184 76.3507 291.289 73.5612 289.504C70.7717 287.72 68.7746 285.288 67.5699 282.208C66.3587 279.129 66.1687 275.988 66.9997 272.786C67.8372 269.585 69.5348 266.93 72.0924 264.824C74.6435 262.724 81.0278 258.791 91.2453 253.025C101.456 247.259 109.329 240.391 114.863 232.422C120.39 224.453 123.209 216.004 123.318 207.075C123.421 198.146 120.265 193.369 113.848 192.744C107.425 192.113 100.455 193.962 92.9364 198.291C85.4182 202.62 78.6699 207.8 72.6915 213.83C66.713 219.866 61.221 226.988 56.2153 235.196C51.2097 243.403 46.2781 250.792 41.4206 257.364C36.5631 263.935 33.5256 267.945 32.308 269.395C31.0969 270.85 28.9548 271.163 25.8818 270.332C22.8089 269.494 20.2738 267.836 18.2767 265.355C16.2732 262.875 15.1941 260.044 15.0395 256.861C14.8784 253.679 15.6708 250.754 17.4167 248.087C19.1625 245.413 22.8057 241.545 28.346 236.481C33.8864 231.417 40.7152 227.088 48.8325 223.493C56.9498 219.898 64.3165 220.23 70.9327 224.489C77.5425 228.741 81.643 234.419 83.2343 241.525C84.8255 248.638 85.6791 257.947 85.7951 269.453C85.9046 280.958 86.0624 291.572 86.2686 301.294C86.4748 311.015 86.4554 321.422 86.2106 332.516C85.9722 343.603 85.8015 350.635 85.6985 353.611C85.6018 356.588 84.5485 359.255 82.5385 361.613C80.5285 363.964 78.016 365.504 75.001 366.232C71.986 366.96 69.0484 366.731 66.188 365.546C63.3276 364.36 61.0857 362.447 59.4622 359.806C57.8452 357.164 56.7436 350.741 56.1574 340.537C55.5776 330.332 55.4455 321 55.7612 312.542C56.0768 304.083 56.7243 295.473 57.7035 286.711C58.6827 277.95 59.8842 269.636 61.308 261.77C62.7253 253.911 64.2585 246.553 65.9078 239.699C67.5505 232.851 68.5845 228.596 69.0097 226.933C69.4285 225.278 69.6378 224.45 69.6378 224.45C69.6378 224.45 69.6378 224.469 69.6378 224.508C69.6378 224.547 69.6378 224.566 69.6378 224.566C69.6378 224.566 69.6539 224.579 69.6862 224.605C69.7184 224.643 69.7184 224.643 69.6862 224.605L69.6378 224.566Z" fill="#0D0D0D"/>
<path d="M69.6378 224.566C69.6378 224.566 69.6378 224.547 69.6378 224.508C69.6378 224.469 69.6378 224.45 69.6378 224.45M69.6378 224.566C69.6378 224.566 69.6539 224.579 69.6862 224.605M69.6378 224.566L69.6862 224.605M69.6378 224.45C69.6378 224.45 69.8504 225.278 70.2756 226.933C70.6944 228.596 71.7284 232.851 73.3776 239.699C75.0204 246.553 76.5536 253.911 77.9774 261.77C79.3947 269.636 80.5929 277.95 81.5722 286.711C82.5514 295.473 83.2504 303.954 83.6691 312.155C84.0879 320.363 84.6258 328.522 85.2829 336.633C85.94 344.75 86.1494 350.351 85.911 353.437C85.6727 356.53 84.5485 359.255 82.5385 361.613M69.6378 224.45C69.6378 224.45 69.4285 225.278 69.0097 226.933C68.5845 228.596 67.5505 232.851 65.9078 239.699C64.2585 246.553 62.7253 253.911 61.308 261.77C59.8842 269.636 58.6827 277.95 57.7035 286.711C56.7243 295.473 56.0768 304.083 55.7612 312.542C55.4455 321 55.5776 330.332 56.1574 340.537C56.7436 350.741 57.8452 357.164 59.4622 359.806C61.0857 362.447 63.3276 364.36 66.188 365.546M82.5385 361.613C80.5285 363.964 78.016 365.504 75.001 366.232C71.986 366.96 69.0484 366.731 66.188 365.546M82.5385 361.613C84.5485 359.255 85.6018 356.588 85.6985 353.611C85.8015 350.635 85.9722 343.603 86.2106 332.516C86.4554 321.422 86.4748 311.015 86.2686 301.294C86.0624 291.572 85.9046 280.958 85.7951 269.453C85.6791 257.947 84.8255 248.638 83.2343 241.525C81.643 234.419 77.5425 228.741 70.9327 224.489C64.3165 220.23 56.9498 219.898 48.8325 223.493C40.7152 227.088 33.8864 231.417 28.346 236.481C22.8057 241.545 19.1625 245.413 17.4167 248.087C15.6708 250.754 14.8784 253.679 15.0395 256.861M66.188 365.546C63.3276 364.36 61.672 362.759 61.221 360.743C60.77 358.726 59.9068 352.89 58.6312 343.233C57.3556 333.582 56.837 321.751 57.0754 307.739C57.3202 293.721 54.4405 283.622 48.4363 277.444C42.4256 271.266 37.9321 268.744 34.9558 269.878C31.9795 271.012 28.9548 271.163 25.8818 270.332M25.8818 270.332C22.8089 269.494 20.2738 267.836 18.2767 265.355C16.2732 262.875 15.1941 260.044 15.0395 256.861M25.8818 270.332C28.9548 271.163 31.0969 270.85 32.308 269.395C33.5256 267.945 36.5631 263.935 41.4206 257.364C46.2781 250.792 51.2097 243.403 56.2153 235.196C61.221 226.988 66.713 219.866 72.6915 213.83C78.6699 207.8 85.4182 202.62 92.9364 198.291C100.455 193.962 107.425 192.113 113.848 192.744C120.265 193.369 123.421 198.146 123.318 207.075C123.209 216.004 120.39 224.453 114.863 232.422C109.329 240.391 101.456 247.259 91.2453 253.025C81.0278 258.791 74.6435 262.724 72.0924 264.824C69.5348 266.93 67.8372 269.585 66.9997 272.786M15.0395 256.861C14.8784 253.679 15.2102 250.925 16.0348 248.599C16.853 246.267 19.2849 240.527 23.3307 231.379C27.3764 222.224 32.8749 213.411 39.8262 204.939C46.7838 196.461 54.6241 188.734 63.3469 181.757C72.0634 174.774 80.5929 169.391 88.9357 165.609C97.2849 161.821 105.705 159.844 114.196 159.676C122.687 159.515 131.071 162.189 139.35 167.697C147.622 173.211 152.701 180.601 154.589 189.865C156.47 199.135 156.332 209.22 154.174 220.121C152.022 231.021 147.641 241.139 141.031 250.474C134.428 259.808 127.467 267.24 120.149 272.767C112.83 278.288 105.586 282.804 98.4155 286.315C91.2453 289.826 86.0077 291.682 82.7028 291.881C79.3979 292.081 76.3507 291.289 73.5612 289.504M73.5612 289.504C70.7717 287.72 68.7746 285.288 67.5699 282.208C66.3587 279.129 66.1687 275.988 66.9997 272.786M73.5612 289.504C76.3507 291.289 79.2691 292.184 82.3163 292.191C85.3699 292.203 92.4661 291.891 103.605 291.253C114.75 290.622 124.346 288.731 132.392 285.581C140.439 282.431 148.569 278.481 156.783 273.733C164.997 268.979 172.898 264.118 180.487 259.151C188.082 254.178 194.821 249.394 200.703 244.801C206.585 240.208 212.64 234.828 218.87 228.663C225.1 222.498 230.569 215.701 235.279 208.273C239.982 200.839 241.763 193.562 240.623 186.444C239.482 179.325 235.533 173.72 228.775 169.629C222.024 165.532 214.576 165.31 206.433 168.963C198.297 172.609 192.489 178.736 189.01 187.342C185.531 195.949 183.019 205.117 181.473 214.845C179.933 224.566 179.682 233.45 180.719 241.496C181.756 249.549 185.679 257.061 192.489 264.031C199.298 271.008 209.316 275.251 222.542 276.758C235.768 278.266 248.257 276.281 260.007 270.805C271.758 265.329 281.325 257.608 288.708 247.642C296.091 237.67 300.974 230.216 303.357 225.281C305.748 220.346 306.724 223.174 306.285 233.766C305.847 244.357 307.622 253.443 311.61 261.026C315.591 268.602 321.138 273.508 328.25 275.743C335.369 277.979 342.907 276.381 350.863 270.95C358.819 265.513 366.047 257.048 372.548 245.555C379.054 234.062 383.915 223.277 387.13 213.202C390.351 203.126 393.211 191.685 395.711 178.877C398.217 166.076 400.204 153.372 401.673 140.765C403.148 128.151 404.208 116.78 404.852 106.653C405.49 96.5191 406.025 85.8474 406.457 74.6379C406.888 63.4283 406.737 56.6897 406.002 54.422C405.268 52.1607 403.938 50.3279 402.011 48.9235M66.9997 272.786C67.8372 269.585 69.1353 267.768 70.8941 267.336C72.6593 266.905 77.1656 265.945 84.4132 264.457C91.6608 262.968 99.7394 261.261 108.649 259.335C117.552 257.409 127.535 253.891 138.596 248.782C149.657 243.674 159.575 238.362 168.35 232.847C177.131 227.339 186.069 220.623 195.166 212.699C204.262 204.769 209.983 199.802 212.328 197.798C214.673 195.788 214.85 199.183 212.859 207.984C210.862 216.79 210.824 224.524 212.744 231.185C214.657 237.847 219.814 242.669 228.215 245.652C236.622 248.641 244.13 248.299 250.74 244.627C257.356 240.949 262.897 235.708 267.361 228.905C271.826 222.102 275.295 214.906 277.769 207.317C280.249 199.721 283.364 192.702 287.113 186.26C290.856 179.818 296.178 176.001 303.077 174.809C309.983 173.617 315.691 175.904 320.201 181.67C324.71 187.442 327.822 194.873 329.536 203.964C331.256 213.054 333.214 220.52 335.411 226.363C337.608 232.2 341.412 231.82 346.824 225.223C352.242 218.62 356.767 210.837 360.401 201.876C364.034 192.915 367.542 182.678 370.924 171.166C374.313 159.66 377.144 148.041 379.418 136.31C381.686 124.578 383.113 113.955 383.699 104.44C384.285 94.9246 384.479 84.7716 384.279 73.9808C384.079 63.1964 384.35 56.6736 385.091 54.4123C385.825 52.1446 387.156 50.3118 389.082 48.9138M389.082 48.9138C391.014 47.5159 393.169 46.8169 395.547 46.8169C397.93 46.8233 400.085 47.5255 402.011 48.9235M389.082 48.9138C387.156 50.3118 386.083 52.5022 385.864 55.485C385.645 58.4613 385.287 65.6895 384.791 77.1697C384.289 88.6563 384.398 100.471 385.12 112.615C385.835 124.759 386.605 140.816 387.429 160.787C388.254 180.765 388.769 202.26 388.975 225.271C389.188 248.29 388.879 267.372 388.048 282.517C387.217 297.663 386.202 312.12 385.004 325.887C383.812 339.654 382.755 350.77 381.834 359.235C380.919 367.701 380.369 376.05 380.182 384.283C379.995 392.51 381.164 400.118 383.69 407.108C386.221 414.091 391.395 416.14 399.209 413.254C407.024 410.368 414.886 403.649 422.797 393.096C430.715 382.544 436.349 373.18 439.699 365.004C443.049 356.836 445.558 348.238 447.227 339.213C448.889 330.194 449.707 321.068 449.681 311.836C449.655 302.605 448.521 293.679 446.28 285.059C444.038 276.439 440.997 268.741 437.157 261.963C433.318 255.18 428.959 248.911 424.083 243.158C419.212 237.405 413.579 231.881 407.181 226.586C400.791 221.296 396.4 218.394 394.01 217.879C391.626 217.363 389.317 217.599 387.081 218.584M402.011 48.9235C403.938 50.3279 405.01 52.5183 405.229 55.4946C405.448 58.471 405.915 65.6573 406.631 77.0537C407.352 88.4437 407.771 100.114 407.887 112.064C408.009 124.015 407.919 140.072 407.616 160.236C407.313 180.394 406.84 202.066 406.196 225.252C405.551 248.431 404.492 267.732 403.016 283.155C401.535 298.578 400.053 313.209 398.571 327.047C397.09 340.891 396.097 352.03 395.595 360.463C395.086 368.896 395.627 375.216 397.218 379.422C398.81 383.623 402.54 382.55 408.409 376.204C414.278 369.859 418.62 363.101 421.435 355.931C424.244 348.767 426.267 341.352 427.504 333.685C428.74 326.025 429.314 318.224 429.224 310.28C429.127 302.344 427.568 294.397 424.547 286.441C421.532 278.485 416.661 270.267 409.935 261.789C403.21 253.305 397.482 247.41 392.754 244.105C388.025 240.8 384.846 238.236 383.216 236.413C381.586 234.59 380.649 232.464 380.404 230.035M380.404 230.035C380.159 227.607 380.652 225.336 381.882 223.223C383.113 221.11 384.846 219.564 387.081 218.584M380.404 230.035C380.649 232.464 381.444 234.426 382.791 235.92C384.131 237.415 388.064 240.575 394.59 245.4C401.116 250.226 409.043 252.841 418.372 253.247C427.706 253.653 436.468 251.978 444.656 248.222C452.844 244.466 461.851 238.794 471.675 231.205C481.493 223.609 489.159 215.795 494.674 207.761C500.189 199.734 503.014 191.997 503.149 184.55C503.291 177.102 500.672 170.702 495.292 165.348C489.913 160.001 482.804 157.978 473.965 159.28C465.126 160.588 458.385 165.767 453.74 174.819C449.095 183.87 446.592 192.896 446.231 201.896C445.877 210.889 446.579 219.009 448.338 226.257C450.103 233.498 453.962 239.454 459.915 244.125C465.874 248.795 473.447 250.48 482.633 249.179C491.827 247.884 501.503 244.192 511.662 238.104C521.822 232.023 530.319 226.183 537.154 220.585C543.99 214.993 551.869 208.576 560.791 201.335C569.714 194.094 576.03 189.349 579.741 187.101C583.452 184.859 586.683 184.492 589.434 185.999C592.184 187.5 595.116 188.051 598.227 187.652M387.081 218.584C389.317 217.599 391.221 217.64 392.793 218.71C394.371 219.786 398.768 221.686 405.983 224.411C413.205 227.136 421.638 226.962 431.282 223.889C440.926 220.823 449.555 216.22 457.17 210.08C464.785 203.941 470.113 199.657 473.154 197.228C476.194 194.806 478.568 196.226 480.275 201.49C481.976 206.753 487.916 208.012 498.095 205.268C508.267 202.53 518.23 197.325 527.984 189.652C537.737 181.979 546.969 175.025 555.679 168.789C564.396 162.553 572.236 158.571 579.2 156.845C586.164 155.125 592.613 155.691 598.546 158.545C604.48 161.406 608.116 164.253 609.456 167.088C610.803 169.922 611.186 172.879 610.606 175.959M610.606 175.959C610.026 179.045 608.596 181.664 606.316 183.815C604.035 185.973 601.339 187.252 598.227 187.652M610.606 175.959C611.186 172.879 610.764 170.715 609.34 169.465C607.916 168.222 603.745 165.915 596.826 162.546C589.914 159.177 581.819 158.909 572.542 161.744C563.265 164.585 556.298 169.893 551.64 177.669C546.982 185.452 543.851 194.951 542.247 206.167C540.643 217.389 540.952 229.423 543.175 242.269C545.391 255.109 549.797 266.083 556.394 275.193C562.991 284.296 570.303 290.545 578.33 293.94C586.357 297.335 594.059 298.581 601.436 297.679C608.806 296.777 616.971 292.848 625.932 285.89C634.887 278.932 644.274 269.42 654.092 257.354C663.903 245.288 673.022 232.922 681.449 220.256C689.875 207.591 698.827 192.596 708.303 175.273C717.78 157.949 724.85 142.746 729.515 129.661C734.179 116.577 738.154 102.829 741.439 88.4179C744.725 74.0065 747.472 60.3296 749.682 47.387C751.892 34.4445 752.736 27.0745 752.214 25.2771C751.686 23.4668 750.678 21.9819 749.189 20.8222M598.227 187.652C595.116 188.051 592.758 188.602 591.154 189.304C589.55 190 586.171 192.793 581.017 197.682C575.863 202.572 573.041 210.38 572.552 221.106C572.062 231.833 573.466 241.28 576.765 249.449C580.07 257.612 586.296 261.68 595.444 261.654C604.599 261.622 616.243 255.341 630.378 242.81C644.518 230.28 655.976 218.246 664.75 206.708C673.518 195.163 682.827 181.296 692.678 165.107C702.521 148.911 709.866 134.748 714.71 122.617C719.555 110.492 723.633 97.6304 726.944 84.0307C730.255 70.4375 732.378 57.598 733.312 45.5123C734.253 33.4395 735.042 26.5172 735.68 24.7456C736.318 22.974 737.416 21.5599 738.975 20.5034M738.975 20.5034C740.534 19.4404 742.254 18.9411 744.135 19.0055C746.017 19.0635 747.701 19.6691 749.189 20.8222M738.975 20.5034C737.416 21.5599 735.545 23.4863 734.301 25.4763C732.76 27.9414 728.733 33.5389 725.712 42.7321C722.69 51.9188 719.647 60.7225 717.161 68.6465C714.674 76.5706 712.294 84.6588 710.019 92.9114C707.745 101.17 701.803 119.558 699.586 130.819C697.37 142.087 691.475 169.967 690.528 178.716C689.574 187.464 685.548 216.214 690.479 239.941C694.512 259.353 703.386 266.193 707.521 269.492C711.656 272.791 718 275.396 724.41 275.396C729 275.396 733.342 273.161 731.188 267.975C728.5 261.5 727 258.5 724.83 247.643C716.726 207.1 724.384 163.458 725.421 155.27C726.452 147.081 728.256 137.637 730.833 126.936C733.41 116.242 735.835 106.836 738.109 98.7191C740.39 90.5954 738.408 82.6102 740.792 74.7635C743.169 66.9232 745.321 57.6914 747.247 47.0681C749.167 36.4448 750.342 29.7062 750.774 26.8522C751.206 23.9919 750.678 21.9819 749.189 20.8222M69.6862 224.605C69.7184 224.643 69.7184 224.643 69.6862 224.605Z" stroke="white" stroke-width="20" stroke-linecap="round" stroke-linejoin="round"/>
<path d="M628.918 85.922C628.918 85.922 623.915 87.1044 623.954 85.922C623.954 84.9475 624.134 84.2459 625.22 83.4068C626.306 82.5677 631.075 81.8661 637.545 81.2498C644.783 80.5605 641.249 80.7359 656.092 79.6408C670.935 78.5456 685.598 78.027 700.08 78.0849C714.562 78.1494 727.605 78.3748 739.207 78.7614C750.81 79.1479 761.955 79.8566 772.643 80.8873C783.33 81.9181 791.783 82.9746 798 84.0569C804.216 85.1457 807.428 85.8189 807.634 86.0766C807.84 86.3407 807.827 86.4309 807.595 86.3472C807.37 86.257 804.158 86.7563 797.961 87.845C791.77 88.9337 783.33 89.9935 772.643 91.0243C761.955 92.055 750.81 92.7605 739.207 93.1406C727.605 93.5271 714.562 93.7526 700.08 93.817C685.598 93.8814 670.935 93.3628 656.092 92.2612C641.249 91.166 654.185 92.2612 639.394 91.1102C631.691 90.5108 626.792 89.2754 625.22 88.9533C623.642 88.6312 624.012 85.9832 623.954 85.9703C626.318 85.9574 623.915 85.9993 623.915 85.9993L628.918 85.922Z" fill="#0D0D0D" stroke="white" stroke-width="20" stroke-linecap="round" stroke-linejoin="round"/>
<path d="M69.6378 224.566C69.6378 224.566 69.6378 224.547 69.6378 224.508C69.6378 224.469 69.6378 224.45 69.6378 224.45C69.6378 224.45 69.8504 225.278 70.2756 226.933C70.6944 228.596 71.7284 232.851 73.3776 239.699C75.0204 246.553 76.5536 253.911 77.9774 261.77C79.3947 269.636 80.5929 277.95 81.5722 286.711C82.5514 295.473 83.2504 303.954 83.6691 312.155C84.0879 320.363 84.6258 328.522 85.2829 336.633C85.94 344.75 86.1494 350.351 85.911 353.437C85.6727 356.53 84.5485 359.255 82.5385 361.613C80.5285 363.964 78.016 365.504 75.001 366.232C71.986 366.96 69.0484 366.731 66.188 365.546C63.3276 364.36 61.672 362.759 61.221 360.743C60.77 358.726 59.9068 352.89 58.6312 343.233C57.3556 333.582 56.837 321.751 57.0754 307.739C57.3202 293.721 54.4405 283.622 48.4363 277.444C42.4256 271.266 37.9321 268.744 34.9558 269.878C31.9795 271.012 28.9548 271.163 25.8818 270.332C22.8089 269.494 20.2738 267.836 18.2767 265.355C16.2732 262.875 15.1941 260.044 15.0395 256.861C14.8784 253.679 15.2102 250.925 16.0348 248.599C16.853 246.267 19.2849 240.527 23.3307 231.379C27.3764 222.224 32.8749 213.411 39.8262 204.939C46.7838 196.461 54.6241 188.734 63.3469 181.757C72.0634 174.774 80.5929 169.391 88.9357 165.609C97.2849 161.821 105.705 159.844 114.196 159.676C122.687 159.515 131.071 162.189 139.35 167.697C147.622 173.211 152.701 180.601 154.589 189.865C156.47 199.135 156.332 209.22 154.174 220.121C152.022 231.021 147.641 241.139 141.031 250.474C134.428 259.808 127.467 267.24 120.149 272.767C112.83 278.288 105.586 282.804 98.4155 286.315C91.2453 289.826 86.0077 291.682 82.7028 291.881C79.3979 292.081 76.3507 291.289 73.5612 289.504C70.7717 287.72 68.7746 285.288 67.5699 282.208C66.3587 279.129 66.1687 275.988 66.9997 272.786C67.8372 269.585 69.1353 267.768 70.8941 267.336C72.6593 266.905 77.1656 265.945 84.4132 264.457C91.6608 262.968 99.7394 261.261 108.649 259.335C117.552 257.409 127.535 253.891 138.596 248.782C149.657 243.674 159.575 238.362 168.35 232.847C177.131 227.339 186.069 220.623 195.166 212.699C204.262 204.769 209.983 199.802 212.328 197.798C214.673 195.788 214.85 199.183 212.859 207.984C210.862 216.79 210.824 224.524 212.744 231.185C214.657 237.847 219.814 242.669 228.215 245.652C236.622 248.641 244.13 248.299 250.74 244.627C257.356 240.949 262.897 235.708 267.361 228.905C271.826 222.102 275.295 214.906 277.769 207.317C280.249 199.721 283.364 192.702 287.113 186.26C290.856 179.818 296.178 176.001 303.077 174.809C309.983 173.617 315.691 175.904 320.201 181.67C324.71 187.442 327.822 194.873 329.536 203.964C331.256 213.054 333.214 220.52 335.411 226.363C337.608 232.2 341.412 231.82 346.824 225.223C352.242 218.62 356.767 210.837 360.401 201.876C364.034 192.915 367.542 182.678 370.924 171.166C374.313 159.66 377.144 148.041 379.418 136.31C381.686 124.578 383.113 113.955 383.699 104.44C384.285 94.9246 384.479 84.7716 384.279 73.9808C384.079 63.1964 384.35 56.6736 385.091 54.4123C385.825 52.1446 387.156 50.3118 389.082 48.9138C391.014 47.5159 393.169 46.8169 395.547 46.8169C397.93 46.8233 400.085 47.5255 402.011 48.9235C403.938 50.3279 405.01 52.5183 405.229 55.4946C405.448 58.471 405.915 65.6573 406.631 77.0537C407.352 88.4437 407.771 100.114 407.887 112.064C408.009 124.015 407.919 140.072 407.616 160.236C407.313 180.394 406.84 202.066 406.196 225.252C405.551 248.431 404.492 267.732 403.016 283.155C401.535 298.578 400.053 313.209 398.571 327.047C397.09 340.891 396.097 352.03 395.595 360.463C395.086 368.896 395.627 375.216 397.218 379.422C398.81 383.623 402.54 382.55 408.409 376.204C414.278 369.859 418.62 363.101 421.435 355.931C424.244 348.767 426.267 341.352 427.504 333.685C428.74 326.025 429.314 318.224 429.224 310.28C429.127 302.344 427.568 294.397 424.547 286.441C421.532 278.485 416.661 270.267 409.935 261.789C403.21 253.305 397.482 247.41 392.754 244.105C388.025 240.8 384.846 238.236 383.216 236.413C381.586 234.59 380.649 232.464 380.404 230.035C380.159 227.607 380.652 225.336 381.882 223.223C383.113 221.11 384.846 219.564 387.081 218.584C389.317 217.599 391.221 217.64 392.793 218.71C394.371 219.786 398.768 221.686 405.983 224.411C413.205 227.136 421.638 226.962 431.282 223.889C440.926 220.823 449.555 216.22 457.17 210.08C464.785 203.941 470.113 199.657 473.154 197.228C476.194 194.806 478.568 196.226 480.275 201.49C481.976 206.753 487.916 208.012 498.095 205.268C508.267 202.53 518.23 197.325 527.984 189.652C537.737 181.979 546.969 175.025 555.679 168.789C564.396 162.553 572.236 158.571 579.2 156.845C586.164 155.125 592.613 155.691 598.546 158.545C604.48 161.406 608.116 164.253 609.456 167.088C610.803 169.922 611.186 172.879 610.606 175.959C610.026 179.045 608.596 181.664 606.316 183.815C604.035 185.973 601.339 187.252 598.227 187.652C595.116 188.051 592.758 188.602 591.154 189.304C589.55 190 586.171 192.793 581.017 197.682C575.863 202.572 573.041 210.38 572.552 221.106C572.062 231.833 573.466 241.28 576.765 249.449C580.07 257.612 586.296 261.68 595.444 261.654C604.599 261.622 616.243 255.341 630.378 242.81C644.518 230.28 655.976 218.246 664.75 206.708C673.518 195.163 682.827 181.296 692.678 165.107C702.521 148.911 709.866 134.748 714.71 122.617C719.555 110.492 723.633 97.6304 726.944 84.0307C730.255 70.4375 732.378 57.598 733.312 45.5123C734.253 33.4395 735.042 26.5172 735.68 24.7456C736.318 22.974 737.416 21.5599 738.975 20.5034C740.534 19.4404 742.254 18.9411 744.135 19.0055C746.017 19.0635 747.701 19.6691 749.189 20.8222C750.678 21.9819 751.206 23.9919 750.774 26.8522C750.342 29.7062 749.167 36.4448 747.247 47.0681C745.321 57.6914 743.169 66.9232 740.792 74.7635C738.408 82.6102 740.39 90.5954 738.109 98.7191C735.835 106.836 733.41 116.242 730.833 126.936C728.256 137.637 726.452 147.081 725.421 155.27C724.384 163.458 716.726 207.1 724.83 247.643C727 258.5 728.5 261.5 731.188 267.975C733.342 273.161 729 275.396 724.41 275.396C718 275.396 711.656 272.791 707.521 269.492C703.386 266.193 694.512 259.353 690.479 239.941C685.548 216.214 689.574 187.464 690.528 178.716C691.475 169.967 697.37 142.087 699.586 130.819C701.803 119.558 707.745 101.17 710.019 92.9114C712.294 84.6588 714.674 76.5706 717.161 68.6465C719.647 60.7225 722.69 51.9188 725.712 42.7321C728.733 33.5389 732.76 27.9414 734.301 25.4763C735.545 23.4863 737.416 21.5599 738.975 20.5034C740.534 19.4404 742.254 18.9411 744.135 19.0055C746.017 19.0635 747.701 19.6691 749.189 20.8222C750.678 21.9819 751.686 23.4668 752.214 25.2771C752.736 27.0745 751.892 34.4445 749.682 47.387C747.472 60.3296 744.725 74.0065 741.439 88.4179C738.154 102.829 734.179 116.577 729.515 129.661C724.85 142.746 717.78 157.949 708.303 175.273C698.827 192.596 689.875 207.591 681.449 220.256C673.022 232.922 663.903 245.288 654.092 257.354C644.274 269.42 634.887 278.932 625.932 285.89C616.971 292.848 608.806 296.777 601.436 297.679C594.059 298.581 586.357 297.335 578.33 293.94C570.303 290.545 562.991 284.296 556.394 275.193C549.797 266.083 545.391 255.109 543.175 242.269C540.952 229.423 540.643 217.389 542.247 206.167C543.851 194.951 546.982 185.452 551.64 177.669C556.298 169.893 563.265 164.585 572.542 161.744C581.819 158.909 589.914 159.177 596.826 162.546C603.745 165.915 607.916 168.222 609.34 169.465C610.764 170.715 611.186 172.879 610.606 175.959C610.026 179.045 608.596 181.664 606.316 183.815C604.035 185.973 601.339 187.252 598.227 187.652C595.116 188.051 592.184 187.5 589.434 185.999C586.683 184.492 583.452 184.859 579.741 187.101C576.03 189.349 569.714 194.094 560.791 201.335C551.869 208.576 543.99 214.993 537.154 220.585C530.319 226.183 521.822 232.023 511.662 238.104C501.503 244.192 491.827 247.884 482.633 249.179C473.447 250.48 465.874 248.795 459.915 244.125C453.962 239.454 450.103 233.498 448.338 226.257C446.579 219.009 445.877 210.889 446.231 201.896C446.592 192.896 449.095 183.87 453.74 174.819C458.385 165.767 465.126 160.588 473.965 159.28C482.804 157.978 489.913 160.001 495.292 165.348C500.672 170.702 503.291 177.102 503.149 184.55C503.014 191.997 500.189 199.734 494.674 207.761C489.159 215.795 481.493 223.609 471.675 231.205C461.851 238.794 452.844 244.466 444.656 248.222C436.468 251.978 427.706 253.653 418.372 253.247C409.043 252.841 401.116 250.226 394.59 245.4C388.064 240.575 384.131 237.415 382.791 235.92C381.444 234.426 380.649 232.464 380.404 230.035C380.159 227.607 380.652 225.336 381.882 223.223C383.113 221.11 384.846 219.564 387.081 218.584C389.317 217.599 391.626 217.363 394.01 217.879C396.4 218.394 400.791 221.296 407.181 226.586C413.579 231.881 419.212 237.405 424.083 243.158C428.959 248.911 433.318 255.18 437.157 261.963C440.997 268.741 444.038 276.439 446.28 285.059C448.521 293.679 449.655 302.605 449.681 311.836C449.707 321.068 448.889 330.194 447.227 339.213C445.558 348.238 443.049 356.836 439.699 365.004C436.349 373.18 430.715 382.544 422.797 393.096C414.886 403.649 407.024 410.368 399.209 413.254C391.395 416.14 386.221 414.091 383.69 407.108C381.164 400.118 379.995 392.51 380.182 384.283C380.369 376.05 380.919 367.701 381.834 359.235C382.755 350.77 383.812 339.654 385.004 325.887C386.202 312.12 387.217 297.663 388.048 282.517C388.879 267.372 389.188 248.29 388.975 225.271C388.769 202.26 388.254 180.765 387.429 160.787C386.605 140.816 385.835 124.759 385.12 112.615C384.398 100.471 384.289 88.6563 384.791 77.1697C385.287 65.6895 385.645 58.4613 385.864 55.485C386.083 52.5022 387.156 50.3118 389.082 48.9138C391.014 47.5159 393.169 46.8169 395.547 46.8169C397.93 46.8233 400.085 47.5255 402.011 48.9235C403.938 50.3279 405.268 52.1607 406.002 54.422C406.737 56.6897 406.888 63.4283 406.457 74.6379C406.025 85.8474 405.49 96.5191 404.852 106.653C404.208 116.78 403.148 128.151 401.673 140.765C400.204 153.372 398.217 166.076 395.711 178.877C393.211 191.685 390.351 203.126 387.13 213.202C383.915 223.277 379.054 234.062 372.548 245.555C366.047 257.048 358.819 265.513 350.863 270.95C342.907 276.381 335.369 277.979 328.25 275.743C321.138 273.508 315.591 268.602 311.61 261.026C307.622 253.443 305.847 244.357 306.285 233.766C306.724 223.174 305.748 220.346 303.357 225.281C300.974 230.216 296.091 237.67 288.708 247.642C281.325 257.608 271.758 265.329 260.007 270.805C248.257 276.281 235.768 278.266 222.542 276.758C209.316 275.251 199.298 271.008 192.489 264.031C185.679 257.061 181.756 249.549 180.719 241.496C179.682 233.45 179.933 224.566 181.473 214.845C183.019 205.117 185.531 195.949 189.01 187.342C192.489 178.736 198.297 172.609 206.433 168.963C214.576 165.31 222.024 165.532 228.775 169.629C235.533 173.72 239.482 179.325 240.623 186.444C241.763 193.562 239.982 200.839 235.279 208.273C230.569 215.701 225.1 222.498 218.87 228.663C212.64 234.828 206.585 240.208 200.703 244.801C194.821 249.394 188.082 254.178 180.487 259.151C172.898 264.118 164.997 268.979 156.783 273.733C148.569 278.481 140.439 282.431 132.392 285.581C124.346 288.731 114.75 290.622 103.605 291.253C92.4661 291.891 85.3699 292.203 82.3163 292.191C79.2691 292.184 76.3507 291.289 73.5612 289.504C70.7717 287.72 68.7746 285.288 67.5699 282.208C66.3587 279.129 66.1687 275.988 66.9997 272.786C67.8372 269.585 69.5348 266.93 72.0924 264.824C74.6435 262.724 81.0278 258.791 91.2453 253.025C101.456 247.259 109.329 240.391 114.863 232.422C120.39 224.453 123.209 216.004 123.318 207.075C123.421 198.146 120.265 193.369 113.848 192.744C107.425 192.113 100.455 193.962 92.9364 198.291C85.4182 202.62 78.6699 207.8 72.6915 213.83C66.713 219.866 61.221 226.988 56.2153 235.196C51.2097 243.403 46.2781 250.792 41.4206 257.364C36.5631 263.935 33.5256 267.945 32.308 269.395C31.0969 270.85 28.9548 271.163 25.8818 270.332C22.8089 269.494 20.2738 267.836 18.2767 265.355C16.2732 262.875 15.1941 260.044 15.0395 256.861C14.8784 253.679 15.6708 250.754 17.4167 248.087C19.1625 245.413 22.8057 241.545 28.346 236.481C33.8864 231.417 40.7152 227.088 48.8325 223.493C56.9498 219.898 64.3165 220.23 70.9327 224.489C77.5425 228.741 81.643 234.419 83.2343 241.525C84.8255 248.638 85.6791 257.947 85.7951 269.453C85.9046 280.958 86.0624 291.572 86.2686 301.294C86.4748 311.015 86.4554 321.422 86.2106 332.516C85.9722 343.603 85.8015 350.635 85.6985 353.611C85.6018 356.588 84.5485 359.255 82.5385 361.613C80.5285 363.964 78.016 365.504 75.001 366.232C71.986 366.96 69.0484 366.731 66.188 365.546C63.3276 364.36 61.0857 362.447 59.4622 359.806C57.8452 357.164 56.7436 350.741 56.1574 340.537C55.5776 330.332 55.4455 321 55.7612 312.542C56.0768 304.083 56.7243 295.473 57.7035 286.711C58.6827 277.95 59.8842 269.636 61.308 261.77C62.7253 253.911 64.2585 246.553 65.9078 239.699C67.5505 232.851 68.5845 228.596 69.0097 226.933C69.4285 225.278 69.6378 224.45 69.6378 224.45C69.6378 224.45 69.6378 224.469 69.6378 224.508C69.6378 224.547 69.6378 224.566 69.6378 224.566C69.6378 224.566 69.6539 224.579 69.6862 224.605C69.7184 224.643 69.7184 224.643 69.6862 224.605L69.6378 224.566Z" fill="#0D0D0D"/>
<path d="M69.6378 224.566C69.6378 224.566 69.6378 224.547 69.6378 224.508C69.6378 224.469 69.6378 224.45 69.6378 224.45M69.6378 224.566C69.6378 224.566 69.6539 224.579 69.6862 224.605M69.6378 224.566L69.6862 224.605M69.6378 224.45C69.6378 224.45 69.8504 225.278 70.2756 226.933C70.6944 228.596 71.7284 232.851 73.3776 239.699C75.0204 246.553 76.5536 253.911 77.9774 261.77C79.3947 269.636 80.5929 277.95 81.5722 286.711C82.5514 295.473 83.2504 303.954 83.6691 312.155C84.0879 320.363 84.6258 328.522 85.2829 336.633C85.94 344.75 86.1494 350.351 85.911 353.437C85.6727 356.53 84.5485 359.255 82.5385 361.613M69.6378 224.45C69.6378 224.45 69.4285 225.278 69.0097 226.933C68.5845 228.596 67.5505 232.851 65.9078 239.699C64.2585 246.553 62.7253 253.911 61.308 261.77C59.8842 269.636 58.6827 277.95 57.7035 286.711C56.7243 295.473 56.0768 304.083 55.7612 312.542C55.4455 321 55.5776 330.332 56.1574 340.537C56.7436 350.741 57.8452 357.164 59.4622 359.806C61.0857 362.447 63.3276 364.36 66.188 365.546M82.5385 361.613C80.5285 363.964 78.016 365.504 75.001 366.232C71.986 366.96 69.0484 366.731 66.188 365.546M82.5385 361.613C84.5485 359.255 85.6018 356.588 85.6985 353.611C85.8015 350.635 85.9722 343.603 86.2106 332.516C86.4554 321.422 86.4748 311.015 86.2686 301.294C86.0624 291.572 85.9046 280.958 85.7951 269.453C85.6791 257.947 84.8255 248.638 83.2343 241.525C81.643 234.419 77.5425 228.741 70.9327 224.489C64.3165 220.23 56.9498 219.898 48.8325 223.493C40.7152 227.088 33.8864 231.417 28.346 236.481C22.8057 241.545 19.1625 245.413 17.4167 248.087C15.6708 250.754 14.8784 253.679 15.0395 256.861M66.188 365.546C63.3276 364.36 61.672 362.759 61.221 360.743C60.77 358.726 59.9068 352.89 58.6312 343.233C57.3556 333.582 56.837 321.751 57.0754 307.739C57.3202 293.721 54.4405 283.622 48.4363 277.444C42.4256 271.266 37.9321 268.744 34.9558 269.878C31.9795 271.012 28.9548 271.163 25.8818 270.332M25.8818 270.332C22.8089 269.494 20.2738 267.836 18.2767 265.355C16.2732 262.875 15.1941 260.044 15.0395 256.861M25.8818 270.332C28.9548 271.163 31.0969 270.85 32.308 269.395C33.5256 267.945 36.5631 263.935 41.4206 257.364C46.2781 250.792 51.2097 243.403 56.2153 235.196C61.221 226.988 66.713 219.866 72.6915 213.83C78.6699 207.8 85.4182 202.62 92.9364 198.291C100.455 193.962 107.425 192.113 113.848 192.744C120.265 193.369 123.421 198.146 123.318 207.075C123.209 216.004 120.39 224.453 114.863 232.422C109.329 240.391 101.456 247.259 91.2453 253.025C81.0278 258.791 74.6435 262.724 72.0924 264.824C69.5348 266.93 67.8372 269.585 66.9997 272.786M15.0395 256.861C14.8784 253.679 15.2102 250.925 16.0348 248.599C16.853 246.267 19.2849 240.527 23.3307 231.379C27.3764 222.224 32.8749 213.411 39.8262 204.939C46.7838 196.461 54.6241 188.734 63.3469 181.757C72.0634 174.774 80.5929 169.391 88.9357 165.609C97.2849 161.821 105.705 159.844 114.196 159.676C122.687 159.515 131.071 162.189 139.35 167.697C147.622 173.211 152.701 180.601 154.589 189.865C156.47 199.135 156.332 209.22 154.174 220.121C152.022 231.021 147.641 241.139 141.031 250.474C134.428 259.808 127.467 267.24 120.149 272.767C112.83 278.288 105.586 282.804 98.4155 286.315C91.2453 289.826 86.0077 291.682 82.7028 291.881C79.3979 292.081 76.3507 291.289 73.5612 289.504M73.5612 289.504C70.7717 287.72 68.7746 285.288 67.5699 282.208C66.3587 279.129 66.1687 275.988 66.9997 272.786M73.5612 289.504C76.3507 291.289 79.2691 292.184 82.3163 292.191C85.3699 292.203 92.4661 291.891 103.605 291.253C114.75 290.622 124.346 288.731 132.392 285.581C140.439 282.431 148.569 278.481 156.783 273.733C164.997 268.979 172.898 264.118 180.487 259.151C188.082 254.178 194.821 249.394 200.703 244.801C206.585 240.208 212.64 234.828 218.87 228.663C225.1 222.498 230.569 215.701 235.279 208.273C239.982 200.839 241.763 193.562 240.623 186.444C239.482 179.325 235.533 173.72 228.775 169.629C222.024 165.532 214.576 165.31 206.433 168.963C198.297 172.609 192.489 178.736 189.01 187.342C185.531 195.949 183.019 205.117 181.473 214.845C179.933 224.566 179.682 233.45 180.719 241.496C181.756 249.549 185.679 257.061 192.489 264.031C199.298 271.008 209.316 275.251 222.542 276.758C235.768 278.266 248.257 276.281 260.007 270.805C271.758 265.329 281.325 257.608 288.708 247.642C296.091 237.67 300.974 230.216 303.357 225.281C305.748 220.346 306.724 223.174 306.285 233.766C305.847 244.357 307.622 253.443 311.61 261.026C315.591 268.602 321.138 273.508 328.25 275.743C335.369 277.979 342.907 276.381 350.863 270.95C358.819 265.513 366.047 257.048 372.548 245.555C379.054 234.062 383.915 223.277 387.13 213.202C390.351 203.126 393.211 191.685 395.711 178.877C398.217 166.076 400.204 153.372 401.673 140.765C403.148 128.151 404.208 116.78 404.852 106.653C405.49 96.5191 406.025 85.8474 406.457 74.6379C406.888 63.4283 406.737 56.6897 406.002 54.422C405.268 52.1607 403.938 50.3279 402.011 48.9235M66.9997 272.786C67.8372 269.585 69.1353 267.768 70.8941 267.336C72.6593 266.905 77.1656 265.945 84.4132 264.457C91.6608 262.968 99.7394 261.261 108.649 259.335C117.552 257.409 127.535 253.891 138.596 248.782C149.657 243.674 159.575 238.362 168.35 232.847C177.131 227.339 186.069 220.623 195.166 212.699C204.262 204.769 209.983 199.802 212.328 197.798C214.673 195.788 214.85 199.183 212.859 207.984C210.862 216.79 210.824 224.524 212.744 231.185C214.657 237.847 219.814 242.669 228.215 245.652C236.622 248.641 244.13 248.299 250.74 244.627C257.356 240.949 262.897 235.708 267.361 228.905C271.826 222.102 275.295 214.906 277.769 207.317C280.249 199.721 283.364 192.702 287.113 186.26C290.856 179.818 296.178 176.001 303.077 174.809C309.983 173.617 315.691 175.904 320.201 181.67C324.71 187.442 327.822 194.873 329.536 203.964C331.256 213.054 333.214 220.52 335.411 226.363C337.608 232.2 341.412 231.82 346.824 225.223C352.242 218.62 356.767 210.837 360.401 201.876C364.034 192.915 367.542 182.678 370.924 171.166C374.313 159.66 377.144 148.041 379.418 136.31C381.686 124.578 383.113 113.955 383.699 104.44C384.285 94.9246 384.479 84.7716 384.279 73.9808C384.079 63.1964 384.35 56.6736 385.091 54.4123C385.825 52.1446 387.156 50.3118 389.082 48.9138M389.082 48.9138C391.014 47.5159 393.169 46.8169 395.547 46.8169C397.93 46.8233 400.085 47.5255 402.011 48.9235M389.082 48.9138C387.156 50.3118 386.083 52.5022 385.864 55.485C385.645 58.4613 385.287 65.6895 384.791 77.1697C384.289 88.6563 384.398 100.471 385.12 112.615C385.835 124.759 386.605 140.816 387.429 160.787C388.254 180.765 388.769 202.26 388.975 225.271C389.188 248.29 388.879 267.372 388.048 282.517C387.217 297.663 386.202 312.12 385.004 325.887C383.812 339.654 382.755 350.77 381.834 359.235C380.919 367.701 380.369 376.05 380.182 384.283C379.995 392.51 381.164 400.118 383.69 407.108C386.221 414.091 391.395 416.14 399.209 413.254C407.024 410.368 414.886 403.649 422.797 393.096C430.715 382.544 436.349 373.18 439.699 365.004C443.049 356.836 445.558 348.238 447.227 339.213C448.889 330.194 449.707 321.068 449.681 311.836C449.655 302.605 448.521 293.679 446.28 285.059C444.038 276.439 440.997 268.741 437.157 261.963C433.318 255.18 428.959 248.911 424.083 243.158C419.212 237.405 413.579 231.881 407.181 226.586C400.791 221.296 396.4 218.394 394.01 217.879C391.626 217.363 389.317 217.599 387.081 218.584M402.011 48.9235C403.938 50.3279 405.01 52.5183 405.229 55.4946C405.448 58.471 405.915 65.6573 406.631 77.0537C407.352 88.4437 407.771 100.114 407.887 112.064C408.009 124.015 407.919 140.072 407.616 160.236C407.313 180.394 406.84 202.066 406.196 225.252C405.551 248.431 404.492 267.732 403.016 283.155C401.535 298.578 400.053 313.209 398.571 327.047C397.09 340.891 396.097 352.03 395.595 360.463C395.086 368.896 395.627 375.216 397.218 379.422C398.81 383.623 402.54 382.55 408.409 376.204C414.278 369.859 418.62 363.101 421.435 355.931C424.244 348.767 426.267 341.352 427.504 333.685C428.74 326.025 429.314 318.224 429.224 310.28C429.127 302.344 427.568 294.397 424.547 286.441C421.532 278.485 416.661 270.267 409.935 261.789C403.21 253.305 397.482 247.41 392.754 244.105C388.025 240.8 384.846 238.236 383.216 236.413C381.586 234.59 380.649 232.464 380.404 230.035M380.404 230.035C380.159 227.607 380.652 225.336 381.882 223.223C383.113 221.11 384.846 219.564 387.081 218.584M380.404 230.035C380.649 232.464 381.444 234.426 382.791 235.92C384.131 237.415 388.064 240.575 394.59 245.4C401.116 250.226 409.043 252.841 418.372 253.247C427.706 253.653 436.468 251.978 444.656 248.222C452.844 244.466 461.851 238.794 471.675 231.205C481.493 223.609 489.159 215.795 494.674 207.761C500.189 199.734 503.014 191.997 503.149 184.55C503.291 177.102 500.672 170.702 495.292 165.348C489.913 160.001 482.804 157.978 473.965 159.28C465.126 160.588 458.385 165.767 453.74 174.819C449.095 183.87 446.592 192.896 446.231 201.896C445.877 210.889 446.579 219.009 448.338 226.257C450.103 233.498 453.962 239.454 459.915 244.125C465.874 248.795 473.447 250.48 482.633 249.179C491.827 247.884 501.503 244.192 511.662 238.104C521.822 232.023 530.319 226.183 537.154 220.585C543.99 214.993 551.869 208.576 560.791 201.335C569.714 194.094 576.03 189.349 579.741 187.101C583.452 184.859 586.683 184.492 589.434 185.999C592.184 187.5 595.116 188.051 598.227 187.652M387.081 218.584C389.317 217.599 391.221 217.64 392.793 218.71C394.371 219.786 398.768 221.686 405.983 224.411C413.205 227.136 421.638 226.962 431.282 223.889C440.926 220.823 449.555 216.22 457.17 210.08C464.785 203.941 470.113 199.657 473.154 197.228C476.194 194.806 478.568 196.226 480.275 201.49C481.976 206.753 487.916 208.012 498.095 205.268C508.267 202.53 518.23 197.325 527.984 189.652C537.737 181.979 546.969 175.025 555.679 168.789C564.396 162.553 572.236 158.571 579.2 156.845C586.164 155.125 592.613 155.691 598.546 158.545C604.48 161.406 608.116 164.253 609.456 167.088C610.803 169.922 611.186 172.879 610.606 175.959M610.606 175.959C610.026 179.045 608.596 181.664 606.316 183.815C604.035 185.973 601.339 187.252 598.227 187.652M610.606 175.959C611.186 172.879 610.764 170.715 609.34 169.465C607.916 168.222 603.745 165.915 596.826 162.546C589.914 159.177 581.819 158.909 572.542 161.744C563.265 164.585 556.298 169.893 551.64 177.669C546.982 185.452 543.851 194.951 542.247 206.167C540.643 217.389 540.952 229.423 543.175 242.269C545.391 255.109 549.797 266.083 556.394 275.193C562.991 284.296 570.303 290.545 578.33 293.94C586.357 297.335 594.059 298.581 601.436 297.679C608.806 296.777 616.971 292.848 625.932 285.89C634.887 278.932 644.274 269.42 654.092 257.354C663.903 245.288 673.022 232.922 681.449 220.256C689.875 207.591 698.827 192.596 708.303 175.273C717.78 157.949 724.85 142.746 729.515 129.661C734.179 116.577 738.154 102.829 741.439 88.4179C744.725 74.0065 747.472 60.3296 749.682 47.387C751.892 34.4445 752.736 27.0745 752.214 25.2771C751.686 23.4668 750.678 21.9819 749.189 20.8222M598.227 187.652C595.116 188.051 592.758 188.602 591.154 189.304C589.55 190 586.171 192.793 581.017 197.682C575.863 202.572 573.041 210.38 572.552 221.106C572.062 231.833 573.466 241.28 576.765 249.449C580.07 257.612 586.296 261.68 595.444 261.654C604.599 261.622 616.243 255.341 630.378 242.81C644.518 230.28 655.976 218.246 664.75 206.708C673.518 195.163 682.827 181.296 692.678 165.107C702.521 148.911 709.866 134.748 714.71 122.617C719.555 110.492 723.633 97.6304 726.944 84.0307C730.255 70.4375 732.378 57.598 733.312 45.5123C734.253 33.4395 735.042 26.5172 735.68 24.7456C736.318 22.974 737.416 21.5599 738.975 20.5034M738.975 20.5034C740.534 19.4404 742.254 18.9411 744.135 19.0055C746.017 19.0635 747.701 19.6691 749.189 20.8222M738.975 20.5034C737.416 21.5599 735.545 23.4863 734.301 25.4763C732.76 27.9414 728.733 33.5389 725.712 42.7321C722.69 51.9188 719.647 60.7225 717.161 68.6465C714.674 76.5706 712.294 84.6588 710.019 92.9114C707.745 101.17 701.803 119.558 699.586 130.819C697.37 142.087 691.475 169.967 690.528 178.716C689.574 187.464 685.548 216.214 690.479 239.941C694.512 259.353 703.386 266.193 707.521 269.492C711.656 272.791 718 275.396 724.41 275.396C729 275.396 733.342 273.161 731.188 267.975C728.5 261.5 727 258.5 724.83 247.643C716.726 207.1 724.384 163.458 725.421 155.27C726.452 147.081 728.256 137.637 730.833 126.936C733.41 116.242 735.835 106.836 738.109 98.7191C740.39 90.5954 738.408 82.6102 740.792 74.7635C743.169 66.9232 745.321 57.6914 747.247 47.0681C749.167 36.4448 750.342 29.7062 750.774 26.8522C751.206 23.9919 750.678 21.9819 749.189 20.8222M69.6862 224.605C69.7184 224.643 69.7184 224.643 69.6862 224.605Z" stroke="#0D0D0D" stroke-width="10" stroke-linecap="round" stroke-linejoin="round"/>
<path d="M621.463 85.5098C621.49 84.9508 621.587 84.283 621.899 83.5883C622.298 82.7014 622.935 82.013 623.691 81.4285C624.385 80.8924 625.313 80.5899 626.029 80.3925C626.848 80.1666 627.842 79.9644 628.951 79.779C631.175 79.4071 634.054 79.071 637.308 78.7611C639.405 78.5614 640.596 78.4343 641.599 78.3273C644.039 78.0668 645.362 77.9257 655.908 77.1475C670.814 76.0477 685.541 75.5267 700.09 75.585L700.091 75.585C714.592 75.6495 727.659 75.8753 739.29 76.2628C750.941 76.6509 762.139 77.3627 772.883 78.3989C783.597 79.4322 792.121 80.4959 798.428 81.594L798.431 81.5944C801.547 82.1401 803.936 82.5863 805.584 82.9316C806.402 83.1031 807.074 83.2573 807.573 83.3933C807.817 83.4597 808.071 83.5355 808.299 83.6217C808.411 83.6638 808.568 83.7276 808.735 83.8165L808.739 83.8188C808.843 83.8741 809.244 84.0874 809.586 84.5149L809.605 84.5384C809.693 84.6516 809.824 84.8288 809.942 85.045C810.002 85.1537 810.089 85.3291 810.159 85.5531C810.222 85.7528 810.329 86.1708 810.254 86.6961C810.165 87.3144 809.832 87.9782 809.184 88.4253C808.626 88.8107 808.071 88.8692 807.794 88.8765C807.635 88.8807 807.487 88.8696 807.353 88.8511C807.302 88.8564 807.238 88.8634 807.162 88.8725C806.777 88.9183 806.196 89.0008 805.402 89.1243C803.821 89.3701 801.488 89.7637 798.393 90.3073C792.109 91.4124 783.597 92.4794 772.883 93.5127C762.139 94.5489 750.941 95.2575 739.29 95.6392L621.463 85.5098ZM621.463 85.5098C621.429 85.6812 621.412 85.8587 621.415 86.0404C621.418 86.1766 621.431 86.3101 621.454 86.4401C621.453 86.7579 621.466 87.2266 621.548 87.7388C621.631 88.2618 621.811 89.0019 622.259 89.7016C622.749 90.4667 623.558 91.165 624.718 91.4024C624.908 91.4413 625.153 91.4951 625.452 91.5609C627.548 92.0218 632.293 93.0652 639.2 93.6027C646.543 94.1741 647.115 94.1979 647.687 94.2063C647.697 94.2065 647.708 94.2067 647.719 94.2068C648.093 94.212 648.664 94.2199 655.908 94.7544C670.814 95.8607 685.542 96.3817 700.091 96.317C714.591 96.2525 727.658 96.0267 739.289 95.6392L621.463 85.5098ZM808.444 83.9958C808.435 83.9924 808.426 83.9892 808.417 83.986C808.428 83.9898 808.437 83.9931 808.444 83.9958Z" fill="#0D0D0D" stroke="#0D0D0D" stroke-width="5" stroke-linecap="round" stroke-linejoin="round"/>
</svg>
